<svg width="73" height="44" viewBox="0 0 73 44" fill="none" xmlns="http://www.w3.org/2000/svg">
<path d="M4.968 32.192H1.944V9.08H4.968V16.784C4.968 18.2 5.424 19.376 6.336 20.312C7.272 21.248 8.436 21.716 9.828 21.716C11.22 21.716 12.36 21.248 13.248 20.312C14.16 19.352 14.616 18.14 14.616 16.676C14.616 15.236 14.16 14.048 13.248 13.112C12.336 12.176 11.172 11.708 9.756 11.708C8.796 11.708 7.8 11.9 6.768 12.284V9.584C7.656 9.176 8.7 8.972 9.9 8.972C11.412 8.972 12.756 9.308 13.932 9.98C15.108 10.628 16.02 11.54 16.668 12.716C17.316 13.868 17.64 15.188 17.64 16.676C17.64 18.692 17.028 20.372 15.804 21.716H19.476V24.38H9.9C8.916 24.38 7.968 24.212 7.056 23.876C6.144 23.54 5.448 23.132 4.968 22.652V32.192ZM36.6646 21.716V24.38H17.5126V21.716H21.5086C20.8126 21.116 20.2726 20.372 19.8886 19.484C19.5286 18.572 19.3486 17.552 19.3486 16.424C19.3486 14.912 19.6846 13.556 20.3566 12.356C21.0526 11.132 22.0006 10.184 23.2006 9.512C24.4246 8.816 25.7926 8.468 27.3046 8.468C28.7926 8.468 30.1006 8.804 31.2286 9.476C32.3806 10.148 33.2686 11.084 33.8926 12.284C34.5166 13.484 34.8286 14.864 34.8286 16.424C34.8286 16.88 34.7686 17.288 34.6486 17.648H24.3166V15.056H31.6966C31.6006 13.904 31.1326 12.968 30.2926 12.248C29.4526 11.504 28.4326 11.132 27.2326 11.132C25.8166 11.132 24.6526 11.636 23.7406 12.644C22.8286 13.628 22.3726 14.888 22.3726 16.424C22.3726 17.984 22.8766 19.256 23.8846 20.24C24.8926 21.224 26.2366 21.716 27.9166 21.716H36.6646ZM34.7096 24.38V21.716H38.4536C37.1816 20.372 36.5456 18.692 36.5456 16.676C36.5456 15.188 36.8816 13.868 37.5536 12.716C38.2256 11.54 39.1496 10.628 40.3256 9.98C41.5256 9.308 42.8696 8.972 44.3576 8.972C45.3656 8.972 46.2656 9.128 47.0576 9.44V12.176C46.2176 11.864 45.3416 11.708 44.4296 11.708C42.9656 11.708 41.7896 12.164 40.9016 13.076C40.0136 13.988 39.5696 15.188 39.5696 16.676C39.5696 18.164 40.0136 19.376 40.9016 20.312C41.8136 21.248 42.9896 21.716 44.4296 21.716C45.8696 21.716 47.0216 21.26 47.8856 20.348C48.7736 19.436 49.2176 18.236 49.2176 16.748V9.08H52.2416V18.728C52.2416 19.664 52.3736 20.372 52.6376 20.852C52.9016 21.332 53.3336 21.608 53.9336 21.68L54.2216 21.716V24.38H53.6456C52.7096 24.38 51.9056 24.188 51.2336 23.804C50.5856 23.396 50.1176 22.832 49.8296 22.112C49.3496 22.76 48.6056 23.3 47.5976 23.732C46.5896 24.164 45.5336 24.38 44.4296 24.38H34.7096ZM52.891 24.38V21.716L53.359 21.68C53.959 21.632 54.415 21.392 54.727 20.96C55.063 20.504 55.231 19.88 55.231 19.088V2.528H58.327V11.276H60.775C61.303 11.276 61.711 11.204 61.999 11.06C62.287 10.892 62.575 10.592 62.863 10.16L67.867 2.528H71.611L65.491 11.744C65.203 12.2 64.855 12.524 64.447 12.716C64.615 12.788 64.771 12.944 64.915 13.184C65.083 13.4 65.299 13.736 65.563 14.192L69.055 20.24C69.367 20.792 69.631 21.176 69.847 21.392C70.087 21.608 70.327 21.716 70.567 21.716H72.583V24.38H70.423C69.487 24.38 68.743 24.212 68.191 23.876C67.639 23.54 67.123 22.952 66.643 22.112L62.899 15.56C62.587 15.008 62.287 14.648 61.999 14.48C61.735 14.312 61.315 14.228 60.739 14.228H58.327V19.088C58.327 20.744 57.919 22.04 57.103 22.976C56.287 23.912 55.075 24.38 53.467 24.38H52.891Z" fill="url(#paint0_linear_403_1748)"/>
<defs>
<linearGradient id="paint0_linear_403_1748" x1="-6.22027e-08" y1="32.0253" x2="72.8708" y2="28.957" gradientUnits="userSpaceOnUse">
<stop stop-color="#FA7474"/>
<stop offset="1" stop-color="#A869CD"/>
</linearGradient>
</defs>
</svg>
