<svg width="50" height="50" viewBox="0 0 50 50" fill="none" xmlns="http://www.w3.org/2000/svg">
<path d="M20.8333 6.25017C20.2431 6.25017 19.7479 6.05017 19.3479 5.65017C18.9479 5.25017 18.7486 4.75573 18.75 4.16684C18.75 3.57656 18.95 3.08142 19.35 2.68142C19.75 2.28142 20.2444 2.08211 20.8333 2.0835H29.1667C29.7569 2.0835 30.2521 2.2835 30.6521 2.6835C31.0521 3.0835 31.2514 3.57795 31.25 4.16684C31.25 4.75711 31.05 5.25225 30.65 5.65225C30.25 6.05225 29.7556 6.25156 29.1667 6.25017H20.8333ZM25 29.1668C25.5903 29.1668 26.0854 28.9668 26.4854 28.5668C26.8854 28.1668 27.0847 27.6724 27.0833 27.0835V18.7502C27.0833 18.1599 26.8833 17.6648 26.4833 17.2648C26.0833 16.8648 25.5889 16.6654 25 16.6668C24.4097 16.6668 23.9146 16.8668 23.5146 17.2668C23.1146 17.6668 22.9153 18.1613 22.9167 18.7502V27.0835C22.9167 27.6738 23.1167 28.1689 23.5167 28.5689C23.9167 28.9689 24.4111 29.1682 25 29.1668ZM25 45.8335C22.4306 45.8335 20.0083 45.3384 17.7333 44.3481C15.4583 43.3578 13.4708 42.0127 11.7708 40.3127C10.0694 38.6113 8.72361 36.6231 7.73334 34.3481C6.74306 32.0731 6.24861 29.6516 6.25 27.0835C6.25 24.5141 6.74514 22.0918 7.73542 19.8168C8.7257 17.5418 10.0708 15.5543 11.7708 13.8543C13.4722 12.1529 15.4604 10.8071 17.7354 9.81684C20.0104 8.82656 22.4319 8.33211 25 8.3335C27.1528 8.3335 29.2188 8.68073 31.1979 9.37517C33.1771 10.0696 35.0347 11.0766 36.7708 12.396L38.2813 10.8856C38.6632 10.5036 39.1319 10.3127 39.6875 10.3127C40.2431 10.3127 40.7292 10.521 41.1458 10.9377C41.5278 11.3196 41.7188 11.8057 41.7188 12.396C41.7188 12.9863 41.5278 13.4724 41.1458 13.8543L39.6875 15.3127C41.0069 17.0488 42.0139 18.9064 42.7083 20.8856C43.4028 22.8648 43.75 24.9307 43.75 27.0835C43.75 29.6529 43.2549 32.0752 42.2646 34.3502C41.2743 36.6252 39.9292 38.6127 38.2292 40.3127C36.5278 42.0141 34.5396 43.3599 32.2646 44.3502C29.9896 45.3404 27.5681 45.8349 25 45.8335ZM25 41.6668C29.0278 41.6668 32.4653 40.2432 35.3125 37.396C38.1597 34.5488 39.5833 31.1113 39.5833 27.0835C39.5833 23.0557 38.1597 19.6182 35.3125 16.771C32.4653 13.9238 29.0278 12.5002 25 12.5002C20.9722 12.5002 17.5347 13.9238 14.6875 16.771C11.8403 19.6182 10.4167 23.0557 10.4167 27.0835C10.4167 31.1113 11.8403 34.5488 14.6875 37.396C17.5347 40.2432 20.9722 41.6668 25 41.6668Z" fill="#9244C0"/>
</svg>
