<svg width="71" height="30" viewBox="0 0 71 30" fill="none" xmlns="http://www.w3.org/2000/svg">
<path d="M3.024 29.664H0V6.552H3.024V14.256C3.024 15.672 3.48 16.848 4.392 17.784C5.328 18.72 6.492 19.188 7.884 19.188C9.276 19.188 10.416 18.72 11.304 17.784C12.216 16.824 12.672 15.612 12.672 14.148C12.672 12.708 12.216 11.52 11.304 10.584C10.392 9.648 9.228 9.18 7.812 9.18C6.852 9.18 5.856 9.372 4.824 9.756V7.056C5.712 6.648 6.756 6.444 7.956 6.444C9.468 6.444 10.812 6.78 11.988 7.452C13.164 8.1 14.076 9.012 14.724 10.188C15.372 11.34 15.696 12.66 15.696 14.148C15.696 16.164 15.084 17.844 13.86 19.188H17.532V21.852H7.956C6.972 21.852 6.024 21.684 5.112 21.348C4.2 21.012 3.504 20.604 3.024 20.124V29.664Z" fill="url(#paint0_linear_442_1457)"/>
<path d="M34.7206 19.188V21.852H15.5686V19.188H19.5646C18.8686 18.588 18.3286 17.844 17.9446 16.956C17.5846 16.044 17.4046 15.024 17.4046 13.896C17.4046 12.384 17.7406 11.028 18.4126 9.828C19.1086 8.604 20.0566 7.656 21.2566 6.984C22.4806 6.288 23.8486 5.94 25.3606 5.94C26.8486 5.94 28.1566 6.276 29.2846 6.948C30.4366 7.62 31.3246 8.556 31.9486 9.756C32.5726 10.956 32.8846 12.336 32.8846 13.896C32.8846 14.352 32.8246 14.76 32.7046 15.12H22.3726V12.528H29.7526C29.6566 11.376 29.1886 10.44 28.3486 9.72C27.5086 8.976 26.4886 8.604 25.2886 8.604C23.8726 8.604 22.7086 9.108 21.7966 10.116C20.8846 11.1 20.4286 12.36 20.4286 13.896C20.4286 15.456 20.9326 16.728 21.9406 17.712C22.9486 18.696 24.2926 19.188 25.9726 19.188H34.7206Z" fill="url(#paint1_linear_442_1457)"/>
<path d="M32.7656 21.852V19.188H36.5096C35.2376 17.844 34.6016 16.164 34.6016 14.148C34.6016 12.66 34.9376 11.34 35.6096 10.188C36.2816 9.012 37.2056 8.1 38.3816 7.452C39.5816 6.78 40.9256 6.444 42.4136 6.444C43.4216 6.444 44.3216 6.6 45.1136 6.912V9.648C44.2736 9.336 43.3976 9.18 42.4856 9.18C41.0216 9.18 39.8456 9.636 38.9576 10.548C38.0696 11.46 37.6256 12.66 37.6256 14.148C37.6256 15.636 38.0696 16.848 38.9576 17.784C39.8696 18.72 41.0456 19.188 42.4856 19.188C43.9256 19.188 45.0776 18.732 45.9416 17.82C46.8296 16.908 47.2736 15.708 47.2736 14.22V6.552H50.2976V16.2C50.2976 17.136 50.4296 17.844 50.6936 18.324C50.9576 18.804 51.3896 19.08 51.9896 19.152L52.2776 19.188V21.852H51.7016C50.7656 21.852 49.9616 21.66 49.2896 21.276C48.6416 20.868 48.1736 20.304 47.8856 19.584C47.4056 20.232 46.6616 20.772 45.6536 21.204C44.6456 21.636 43.5896 21.852 42.4856 21.852H32.7656Z" fill="url(#paint2_linear_442_1457)"/>
<path d="M50.947 21.852V19.188L51.415 19.152C52.015 19.104 52.471 18.864 52.783 18.432C53.119 17.976 53.287 17.352 53.287 16.56V0H56.383V8.748H58.831C59.359 8.748 59.767 8.676 60.055 8.532C60.343 8.364 60.631 8.064 60.919 7.632L65.923 0H69.667L63.547 9.216C63.259 9.672 62.911 9.996 62.503 10.188C62.671 10.26 62.827 10.416 62.971 10.656C63.139 10.872 63.355 11.208 63.619 11.664L67.111 17.712C67.423 18.264 67.687 18.648 67.903 18.864C68.143 19.08 68.383 19.188 68.623 19.188H70.639V21.852H68.479C67.543 21.852 66.799 21.684 66.247 21.348C65.695 21.012 65.179 20.424 64.699 19.584L60.955 13.032C60.643 12.48 60.343 12.12 60.055 11.952C59.791 11.784 59.371 11.7 58.795 11.7H56.383V16.56C56.383 18.216 55.975 19.512 55.159 20.448C54.343 21.384 53.131 21.852 51.523 21.852H50.947Z" fill="url(#paint3_linear_442_1457)"/>
<defs>
<linearGradient id="paint0_linear_442_1457" x1="-1.94397" y1="29.4973" x2="70.9268" y2="26.429" gradientUnits="userSpaceOnUse">
<stop stop-color="#FA7474"/>
<stop offset="1" stop-color="#A869CD"/>
</linearGradient>
<linearGradient id="paint1_linear_442_1457" x1="-1.94397" y1="29.4973" x2="70.9268" y2="26.429" gradientUnits="userSpaceOnUse">
<stop stop-color="#FA7474"/>
<stop offset="1" stop-color="#A869CD"/>
</linearGradient>
<linearGradient id="paint2_linear_442_1457" x1="-1.94397" y1="29.4973" x2="70.9268" y2="26.429" gradientUnits="userSpaceOnUse">
<stop stop-color="#FA7474"/>
<stop offset="1" stop-color="#A869CD"/>
</linearGradient>
<linearGradient id="paint3_linear_442_1457" x1="-1.94397" y1="29.4973" x2="70.9268" y2="26.429" gradientUnits="userSpaceOnUse">
<stop stop-color="#FA7474"/>
<stop offset="1" stop-color="#A869CD"/>
</linearGradient>
</defs>
</svg>
