<svg width="50" height="50" viewBox="0 0 50 50" fill="none" xmlns="http://www.w3.org/2000/svg">
<path d="M25.0005 17.3957C23.8101 16.7854 22.4583 16.5636 21.1354 16.7617C19.8124 16.9598 18.5849 17.5677 17.6255 18.4998C16.455 19.6717 15.7976 21.2602 15.7976 22.9165C15.7976 24.5728 16.455 26.1613 17.6255 27.3332L23.5213 33.3332C23.715 33.5284 23.9454 33.6834 24.1993 33.7892C24.4531 33.895 24.7254 33.9494 25.0005 33.9494C25.2755 33.9494 25.5478 33.895 25.8017 33.7892C26.0555 33.6834 26.2859 33.5284 26.4796 33.3332L32.3755 27.4373C33.5459 26.2655 34.2033 24.6769 34.2033 23.0207C34.2033 21.3644 33.5459 19.7759 32.3755 18.604C31.428 17.6548 30.2062 17.0275 28.8828 16.8106C27.5593 16.5938 26.2012 16.7984 25.0005 17.3957ZM29.4171 24.3957L25.0005 28.8123L20.5838 24.3957C20.3885 24.202 20.2335 23.9716 20.1278 23.7177C20.022 23.4638 19.9675 23.1915 19.9675 22.9165C19.9675 22.6415 20.022 22.3692 20.1278 22.1153C20.2335 21.8614 20.3885 21.631 20.5838 21.4373C20.9741 21.0493 21.5021 20.8315 22.0525 20.8315C22.6029 20.8315 23.1309 21.0493 23.5213 21.4373C23.715 21.6326 23.9454 21.7876 24.1993 21.8934C24.4531 21.9991 24.7254 22.0536 25.0005 22.0536C25.2755 22.0536 25.5478 21.9991 25.8017 21.8934C26.0555 21.7876 26.2859 21.6326 26.4796 21.4373C26.87 21.0493 27.398 20.8315 27.9484 20.8315C28.4988 20.8315 29.0268 21.0493 29.4171 21.4373C29.6124 21.631 29.7674 21.8614 29.8731 22.1153C29.9789 22.3692 30.0334 22.6415 30.0334 22.9165C30.0334 23.1915 29.9789 23.4638 29.8731 23.7177C29.7674 23.9716 29.6124 24.202 29.4171 24.3957ZM25.0005 4.1665C22.2646 4.1665 19.5555 4.70537 17.0279 5.75235C14.5003 6.79932 12.2036 8.33389 10.2691 10.2684C6.36205 14.1755 4.16712 19.4745 4.16712 24.9998C4.14891 29.8105 5.8146 34.476 8.87545 38.1873L4.70879 42.354C4.41971 42.647 4.22388 43.019 4.14602 43.4231C4.06816 43.8273 4.11175 44.2454 4.27129 44.6248C4.44432 44.9997 4.72484 45.3147 5.07722 45.5298C5.4296 45.7449 5.83796 45.8505 6.25045 45.8332H25.0005C30.5258 45.8332 35.8248 43.6382 39.7318 39.7312C43.6389 35.8242 45.8338 30.5252 45.8338 24.9998C45.8338 19.4745 43.6389 14.1755 39.7318 10.2684C35.8248 6.36144 30.5258 4.1665 25.0005 4.1665ZM25.0005 41.6665H11.2713L13.2088 39.729C13.5968 39.3387 13.8146 38.8106 13.8146 38.2603C13.8146 37.7099 13.5968 37.1818 13.2088 36.7915C10.4808 34.0666 8.78207 30.4801 8.40189 26.6432C8.02172 22.8062 8.98367 18.9561 11.1238 15.7488C13.264 12.5416 16.45 10.1756 20.139 9.05395C23.828 7.93231 27.7918 8.12443 31.3551 9.59757C34.9183 11.0707 37.8606 13.7337 39.6805 17.1329C41.5005 20.5321 42.0856 24.4572 41.3361 28.2394C40.5867 32.0217 38.549 35.427 35.5703 37.8753C32.5916 40.3237 28.8562 41.6635 25.0005 41.6665Z" fill="#9244C0"/>
</svg>
